<mxfile host="app.diagrams.net" agent="Mozilla/5.0 (Windows NT 10.0; Win64; x64) AppleWebKit/537.36 (KHTML, like Gecko) Chrome/129.0.0.0 Safari/537.36 Edg/129.0.0.0" version="24.7.17">
  <diagram name="第 1 页" id="69x3qnoHSmk-xhr35-bi">
    <mxGraphModel dx="766" dy="509" grid="1" gridSize="10" guides="1" tooltips="1" connect="1" arrows="1" fold="1" page="1" pageScale="1" pageWidth="827" pageHeight="1169" math="0" shadow="0">
      <root>
        <mxCell id="0" />
        <mxCell id="1" parent="0" />
        <mxCell id="3-4DytRm0PfWUnIqqKJm-1" value="" style="rounded=0;whiteSpace=wrap;html=1;" vertex="1" parent="1">
          <mxGeometry x="280" y="40" width="660" height="380" as="geometry" />
        </mxCell>
        <mxCell id="3-4DytRm0PfWUnIqqKJm-2" value="partition" style="text;html=1;align=center;verticalAlign=middle;resizable=0;points=[];autosize=1;strokeColor=none;fillColor=none;" vertex="1" parent="1">
          <mxGeometry x="530" y="440" width="70" height="30" as="geometry" />
        </mxCell>
        <mxCell id="3-4DytRm0PfWUnIqqKJm-3" value="" style="rounded=0;whiteSpace=wrap;html=1;" vertex="1" parent="1">
          <mxGeometry x="310" y="60" width="580" height="180" as="geometry" />
        </mxCell>
        <mxCell id="3-4DytRm0PfWUnIqqKJm-4" value="MaterializedIndex(baseIndexId)" style="text;html=1;align=center;verticalAlign=middle;resizable=0;points=[];autosize=1;strokeColor=none;fillColor=none;" vertex="1" parent="1">
          <mxGeometry x="319" y="250" width="190" height="30" as="geometry" />
        </mxCell>
        <mxCell id="3-4DytRm0PfWUnIqqKJm-5" value="" style="rounded=0;whiteSpace=wrap;html=1;" vertex="1" parent="1">
          <mxGeometry x="320" y="300" width="580" height="60" as="geometry" />
        </mxCell>
        <mxCell id="3-4DytRm0PfWUnIqqKJm-6" value="MaterializedIndex(rollup)" style="text;html=1;align=center;verticalAlign=middle;resizable=0;points=[];autosize=1;strokeColor=none;fillColor=none;" vertex="1" parent="1">
          <mxGeometry x="320" y="370" width="150" height="30" as="geometry" />
        </mxCell>
        <mxCell id="3-4DytRm0PfWUnIqqKJm-7" value="" style="rounded=0;whiteSpace=wrap;html=1;" vertex="1" parent="1">
          <mxGeometry x="330" y="70" width="220" height="120" as="geometry" />
        </mxCell>
        <mxCell id="3-4DytRm0PfWUnIqqKJm-8" value="" style="rounded=0;whiteSpace=wrap;html=1;" vertex="1" parent="1">
          <mxGeometry x="560" y="70" width="220" height="120" as="geometry" />
        </mxCell>
        <mxCell id="3-4DytRm0PfWUnIqqKJm-13" value="LocalTablet(根据Distribution的BucketNum创建)" style="text;html=1;align=center;verticalAlign=middle;resizable=0;points=[];autosize=1;strokeColor=none;fillColor=none;" vertex="1" parent="1">
          <mxGeometry x="319" y="200" width="270" height="30" as="geometry" />
        </mxCell>
        <mxCell id="3-4DytRm0PfWUnIqqKJm-14" value="Replica&lt;div&gt;(backendId)&lt;/div&gt;" style="rounded=0;whiteSpace=wrap;html=1;" vertex="1" parent="1">
          <mxGeometry x="340" y="80" width="80" height="60" as="geometry" />
        </mxCell>
        <mxCell id="3-4DytRm0PfWUnIqqKJm-15" value="Replica" style="rounded=0;whiteSpace=wrap;html=1;" vertex="1" parent="1">
          <mxGeometry x="440" y="80" width="80" height="60" as="geometry" />
        </mxCell>
        <mxCell id="3-4DytRm0PfWUnIqqKJm-16" value="LocalTablet" style="text;html=1;align=center;verticalAlign=middle;resizable=0;points=[];autosize=1;strokeColor=none;fillColor=none;" vertex="1" parent="1">
          <mxGeometry x="630" y="200" width="80" height="30" as="geometry" />
        </mxCell>
        <mxCell id="3-4DytRm0PfWUnIqqKJm-17" value="根据ReplicationNum创建" style="text;html=1;align=center;verticalAlign=middle;resizable=0;points=[];autosize=1;strokeColor=none;fillColor=none;" vertex="1" parent="1">
          <mxGeometry x="360" y="150" width="160" height="30" as="geometry" />
        </mxCell>
      </root>
    </mxGraphModel>
  </diagram>
</mxfile>
